<svg width="68" height="26" viewBox="0 0 68 26" fill="none" xmlns="http://www.w3.org/2000/svg">
<path d="M20.5439 7.37552L20.6689 7.6929L23.0684 13.7886L23.0752 13.8042L23.0801 13.8199L23.291 14.481L23.4932 13.8247L23.499 13.8062L23.5059 13.7886L25.9062 7.6929L26.0312 7.37552H30.5566L30.2646 8.06985L23.2803 24.6304L23.1514 24.9361H18.626L18.9287 24.2378L21.0752 19.273L16.335 8.07083L16.041 7.37552H20.5439ZM51.5381 7.08841C53.5052 7.08848 55.0964 7.76228 56.1934 8.939C57.2859 10.111 57.8457 11.7355 57.8457 13.564C57.8457 13.9471 57.8457 14.2041 57.8203 14.5601L57.7871 15.024H54.6328L54.9365 15.3697L56.7129 17.3853L56.9854 17.6949L56.7334 18.021C56.2124 18.6969 55.3876 19.2032 54.499 19.5396C53.6035 19.8786 52.5955 20.0639 51.6582 20.064C49.6301 20.064 48.0029 19.3654 46.8857 18.1753C45.7732 16.9901 45.2061 15.3599 45.2061 13.564C45.2061 11.7355 45.7653 10.1102 46.8613 8.93802C47.9618 7.7612 49.5598 7.08841 51.5381 7.08841ZM35.2217 1.064V7.63333C35.4314 7.5348 35.6514 7.45305 35.8662 7.38626C36.4913 7.19196 37.1894 7.08841 37.7695 7.08841C39.7838 7.08843 41.3911 7.82965 42.4912 9.02884C43.5855 10.2217 44.1493 11.8355 44.1494 13.5396C44.1494 15.439 43.5781 17.0574 42.4629 18.2027C41.3456 19.3499 39.7359 19.9683 37.7695 19.9683C37.2467 19.9683 36.5952 19.8471 35.9961 19.6333C35.7683 19.5521 35.5378 19.4515 35.3174 19.3345V19.6558H31.1738V1.064H35.2217ZM63.8076 7.064C64.4829 7.064 65.761 7.13326 66.5713 7.43021L66.9863 7.58255L66.8867 8.01224L66.2383 10.8208L66.1133 11.3628L65.5879 11.1802C65.0265 10.9859 64.5314 10.9205 63.9277 10.9204C63.6711 10.9204 63.4706 10.9323 63.2998 10.9624V19.6558H59.2031V8.07474L59.4756 7.93509C60.5035 7.40799 62.1964 7.064 63.8076 7.064ZM7.0957 6.58841C8.07378 6.58841 9.89386 6.9006 11.583 7.36282C12.4337 7.59562 13.2711 7.87171 13.9697 8.17532C14.6462 8.46929 15.27 8.82094 15.6152 9.23685L16.1094 9.83157L15.3643 10.0376L9.96484 11.5298L9.66992 11.6118L9.46289 11.3853C8.79691 10.6569 8.09443 10.3716 7.0957 10.3716C5.7741 10.3718 4.5957 11.434 4.5957 13.064C4.5957 13.9891 4.88424 14.6588 5.31348 15.0952C5.74346 15.5324 6.35819 15.7797 7.0957 15.7798C8.00981 15.7798 8.98958 15.4262 9.4873 14.7945L9.73535 14.48L10.0957 14.6529L15.3984 17.1929L15.9766 17.4702L15.5674 17.9634C15.2007 18.405 14.5534 18.6861 13.8838 18.8824C13.1884 19.0861 12.36 19.2281 11.5225 19.3277C9.8445 19.527 8.06407 19.564 7.0957 19.564C5.08969 19.5639 3.4303 18.914 2.27148 17.7486C1.11352 16.584 0.5 14.9495 0.5 13.064C0.5 11.1882 1.12074 9.55947 2.28125 8.39896C3.44231 7.23798 5.10109 6.58847 7.0957 6.58841ZM49.457 15.024C49.5801 15.351 49.7712 15.6177 50.0186 15.8208C50.3981 16.1324 50.9458 16.3277 51.6582 16.3277C52.7114 16.3276 53.6387 15.9756 54.1904 15.3648L54.498 15.024H49.457ZM37.6494 10.9204C36.2209 10.9205 35.174 11.9922 35.1738 13.5396C35.1738 15.0606 36.2183 16.1362 37.6494 16.1363C38.3593 16.1363 38.9304 15.8755 39.3271 15.4429C39.727 15.0068 39.9814 14.3598 39.9814 13.5396C39.9814 12.7059 39.7261 12.0532 39.3262 11.6148C38.9296 11.18 38.3591 10.9204 37.6494 10.9204ZM51.5381 10.8238C50.5624 10.8238 49.8228 11.2877 49.5176 11.9605H53.5068C53.2043 11.2781 52.4979 10.8239 51.5381 10.8238Z" fill="black" stroke="black"/>
</svg>
